<?xml version="1.0" encoding="utf-8"?>
<!-- Generator: Adobe Illustrator 15.0.1, SVG Export Plug-In . SVG Version: 6.00 Build 0)  -->
<!DOCTYPE svg PUBLIC "-//W3C//DTD SVG 1.0//EN" "http://www.w3.org/TR/2001/REC-SVG-20010904/DTD/svg10.dtd">
<svg version="1.0" id="Ebene_1" xmlns="http://www.w3.org/2000/svg" xmlns:xlink="http://www.w3.org/1999/xlink" x="0px" y="0px"
	 width="280px" height="280px" viewBox="0 0 280 280" enable-background="new 0 0 280 280" xml:space="preserve">
<g>
	<path fill="#C1272D" d="M279.232,0.582C165.306-8.267,101.05,76.225,78.924,143.198l57.992,57.991
		C206.175,176.877,288.853,114.589,279.232,0.582z"/>
	<path fill="#FFFFFF" d="M177.485,124.644c-6.095,6.094-15.976,6.094-22.07,0c-6.095-6.094-6.094-15.975,0-22.068
		c6.096-6.096,15.975-6.096,22.07-0.002C183.58,108.667,183.58,118.549,177.485,124.644z"/>
	<circle fill="#FFFFFF" cx="209.529" cy="70.529" r="25.749"/>
	<path fill="#222222" d="M96.452,190.716l10.933,10.934c-10.177,10.302-20.594,22.503-24.692,39.281l-15.019-3.67
		C72.729,216.601,85.034,202.261,96.452,190.716z"/>
	<path fill="#222222" d="M78.807,173.071l10.907,10.907c-12.091,11.908-26.059,23.794-46.519,28.802l-3.672-15.02
		C56.306,193.661,68.576,183.182,78.807,173.071z"/>
	<path fill="#C1272D" d="M0,130.938c19.222-37.447,60.52-59.278,89.558-56.916c-10.19,14.996-22.577,40.387-26.821,53.83
		C38.773,112.793,18.723,116.853,0,130.938z"/>
	<path fill="#222222" d="M108.474,242.701c2.221,21.923-10.225,35.274-26.801,36.955c-9.747,0.997-18.378-2.21-25.453-9.507
		c-17.008,6.005-33.196-0.513-41.741-12.658c-6.707-9.532-8.202-21.621-4.115-33.198c-7.308-7.083-10.506-15.646-9.505-25.453
		c1.664-16.43,14.711-29.107,37.64-26.728l2.271,13.035c-7.746,0.728-14.903,1.132-19.54,5.766
		c-7.795,7.798-5.453,24.079,9.185,28.396c-9.707,9.756-8.769,23.776-1.48,31.468c7.638,8.062,22.218,9.323,32.27-0.681
		c4.49,15.228,20.981,16.599,28.394,9.187c4.576-4.575,5.029-11.611,5.738-19.249L108.474,242.701z"/>
	<path fill="#C1272D" d="M206.037,190.502c2.36,29.037-19.469,70.338-56.914,89.558c14.083-18.724,18.143-38.773,3.085-62.737
		C165.648,213.078,191.043,200.693,206.037,190.502z"/>
</g>
</svg>
